<svg xmlns="http://www.w3.org/2000/svg" viewBox="0 0 1440 320">
  <path fill="#fff" fill-opacity="1" d="M0,224L24,197.3C48,171,96,117,144,96C192,75,240,85,288,74.7C336,64,384,32,432,32C480,32,528,64,576,101.3C624,139,672,181,720,213.3C768,245,816,267,864,266.7C912,267,960,245,1008,213.3C1056,181,1104,139,1152,144C1200,149,1248,203,1296,224C1344,245,1392,235,1416,229.3L1440,224L1440,320L1416,320C1392,320,1344,320,1296,320C1248,320,1200,320,1152,320C1104,320,1056,320,1008,320C960,320,912,320,864,320C816,320,768,320,720,320C672,320,624,320,576,320C528,320,480,320,432,320C384,320,336,320,288,320C240,320,192,320,144,320C96,320,48,320,24,320L0,320Z"></path>
</svg>